<svg width="28" height="28" viewBox="0 0 28 28" fill="none" xmlns="http://www.w3.org/2000/svg">
<path d="M24.5 21V14C24.5 8.20101 19.799 3.5 14 3.5C8.20101 3.5 3.5 8.20101 3.5 14V21M6.41667 24.5C4.80584 24.5 3.5 23.1942 3.5 21.5833V19.25C3.5 17.6392 4.80584 16.3333 6.41667 16.3333C8.0275 16.3333 9.33333 17.6392 9.33333 19.25V21.5833C9.33333 23.1942 8.0275 24.5 6.41667 24.5ZM21.5833 24.5C19.9725 24.5 18.6667 23.1942 18.6667 21.5833V19.25C18.6667 17.6392 19.9725 16.3333 21.5833 16.3333C23.1942 16.3333 24.5 17.6392 24.5 19.25V21.5833C24.5 23.1942 23.1942 24.5 21.5833 24.5Z" stroke="#F7F7F7" stroke-width="2" stroke-linecap="round" stroke-linejoin="round"/>
</svg>
