<svg width="28" height="28" viewBox="0 0 28 28" fill="none" xmlns="http://www.w3.org/2000/svg">
<path d="M14 7.00001H14.0117M10.2667 25.6667H17.7334C19.6935 25.6667 20.6736 25.6667 21.4223 25.2852C22.0809 24.9496 22.6163 24.4142 22.9519 23.7556C23.3334 23.007 23.3334 22.0269 23.3334 20.0667V7.93334C23.3334 5.97316 23.3334 4.99307 22.9519 4.24438C22.6163 3.58581 22.0809 3.05038 21.4223 2.71482C20.6736 2.33334 19.6935 2.33334 17.7334 2.33334H10.2667C8.3065 2.33334 7.32641 2.33334 6.57772 2.71482C5.91915 3.05038 5.38372 3.58581 5.04816 4.24438C4.66669 4.99307 4.66669 5.97316 4.66669 7.93334V20.0667C4.66669 22.0269 4.66669 23.007 5.04816 23.7556C5.38372 24.4142 5.91915 24.9496 6.57772 25.2852C7.32641 25.6667 8.3065 25.6667 10.2667 25.6667ZM14.5834 7.00001C14.5834 7.32218 14.3222 7.58334 14 7.58334C13.6779 7.58334 13.4167 7.32218 13.4167 7.00001C13.4167 6.67784 13.6779 6.41668 14 6.41668C14.3222 6.41668 14.5834 6.67784 14.5834 7.00001ZM18.6667 16.3333C18.6667 18.9107 16.5773 21 14 21C11.4227 21 9.33335 18.9107 9.33335 16.3333C9.33335 13.756 11.4227 11.6667 14 11.6667C16.5773 11.6667 18.6667 13.756 18.6667 16.3333Z" stroke="#F7F7F7" stroke-width="2" stroke-linecap="round" stroke-linejoin="round"/>
</svg>
